<svg version="1.1" id="Layer_1" xmlns="http://www.w3.org/2000/svg" xmlns:xlink="http://www.w3.org/1999/xlink" x="0px" y="0px"
	 viewBox="0 0 90.3 40.4" style="enable-background:new 0 0 90.3 40.4;" xml:space="preserve">
<style type="text/css">
	.st0{fill:#2F3543;}
	.st1{fill:#FFFFFF;}
</style>
<path class="st0" d="M90.3,40.4c-30.4,0-59.8,0-90.3,0c5.3-6,7-13.8,16-15.3c3.8-0.7,4.3-6.4,7.5-9.5c3.5,5.2,5.9,1.8,8.3-1.3
	C35.6,9.6,39.4,5,43.4,0c2.5,3,4.7,6.1,9.2,5.3C54,5.1,54.3,7.1,55,8.2c1.9,3.3,3.7,6.7,5.9,9.8c3.5,4.7,6.7,5.1,10.9,1.3
	c1.6-1.4,2.3-1.9,3.7,0C80.2,26.1,85,32.9,90.3,40.4z"/>
<path class="st1" d="M46.2,20.6c-2.3,2.3-4.2,4-5.9,6c-1.9,2.2-3.3,1.6-4.6-0.5c-2.6-4.2-2.4-8.5-0.2-12.7c1.1-2,2.9-3.6,4.2-5.4
	c2-2.9,3.1-2.7,7.1-1.5c8.2,2.4,6,7.8,6.1,12.5c0.1,4.2,1.8,9-2.7,12.8C48.9,28.2,47.6,24.8,46.2,20.6z"/>
<path class="st1" d="M23.7,19.3c2.5,5.8,7,8.7,10.2,12.7c0.7,0.9,4.2,2.8,0.8,4.6c-2.8,1.5-6.3,2.9-8.5-0.2c-2-2.8-2.8-6.3-6.6-7.6
	c-1.3-0.4-0.6-1.6-0.1-2.5C20.8,24.2,22,22,23.7,19.3z"/>
<path class="st1" d="M74.8,21.5c2.7,5.7,2.9,12.6,9.5,15.7c-5.8,1.6-10.8,0.7-14.9-3.1c-2-1.9-4.4-4.8,1-5.7
	C74.1,27.7,72.3,23.8,74.8,21.5z"/>
<path class="st1" d="M56.8,17.5c3.5,3.9,4.8,7.7,5.7,11.7c0.2,1,1,2.4-0.7,2.8c-1.6,0.4-2.5-0.8-3.1-1.9
	C56.9,26.4,57.1,22.5,56.8,17.5z"/>
<path class="st1" d="M15,33.2c-1.4,2.2-3.2,3.6-5.9,2.9c-1.3-0.4,0.1-5.4,1.4-5.2c0.9,0.1,0.1,2.1,1.6,2C13,32.8,13.9,31.8,15,33.2z
	"/>
</svg>
