<svg width="805" height="1038" viewBox="0 0 805 1038" fill="none" xmlns="http://www.w3.org/2000/svg">
<path opacity="0.05" d="M50.0876 987.869C106.056 948.185 127.218 895.86 113.573 830.896C93.1061 733.449 115.497 671.242 177.187 666.178C238.878 661.115 297.096 731.765 312.681 816.334C328.265 900.903 414.957 903.243 449.34 886.488C483.724 869.733 503.462 835.948 502.073 799.129C499.001 717.7 387.326 652.819 389.94 577.746C392.553 502.674 484.376 475.104 541.979 542.715C544.817 546.046 547.708 549.181 550.644 552.126C609.673 611.34 687.026 593.844 722.396 549.923C783.731 473.762 755.761 392.366 657.35 337.138C509.196 250.096 430.342 154.689 420.789 50.9169" stroke="url(#paint0_linear_1_144)" stroke-width="100" stroke-linecap="round"/>
<defs>
<linearGradient id="paint0_linear_1_144" x1="50.0876" y1="987.869" x2="738.431" y2="55.2085" gradientUnits="userSpaceOnUse">
<stop stop-color="#4E7577"/>
<stop offset="1" stop-color="#65D5FC"/>
<stop offset="1" stop-color="#23445B"/>
</linearGradient>
</defs>
</svg>
