<svg width="14" height="8" viewBox="0 0 14 8" fill="none" xmlns="http://www.w3.org/2000/svg">
<path d="M5.4495 7.95617L4.32309 7.654L4.78217 5.93958C4.09499 5.68614 3.45632 5.3168 2.89392 4.84758L1.638 6.10408L0.812588 5.27867L2.06909 4.02275C1.3598 3.17328 0.883222 2.1542 0.686005 1.06525L1.834 0.855835C2.27675 3.307 4.42109 5.16667 7 5.16667C9.57834 5.16667 11.7233 3.307 12.166 0.855835L13.314 1.06467C13.1171 2.15376 12.6407 3.17305 11.9315 4.02275L13.1874 5.27867L12.362 6.10408L11.1061 4.84758C10.5437 5.3168 9.90502 5.68614 9.21784 5.93958L9.67692 7.65458L8.5505 7.95617L8.09084 6.24117C7.36888 6.36488 6.63113 6.36488 5.90917 6.24117L5.4495 7.95617Z" fill="black"/>
</svg>
