<svg width="38" height="42" viewBox="0 0 38 42" fill="none" xmlns="http://www.w3.org/2000/svg">
<path d="M3.85301 37.8015L0.484009 0H37.516L34.1425 37.7955L18.9775 42L3.85301 37.8015Z" fill="#1572B6"/>
<path d="M19 38.787L31.255 35.3895L34.138 3.09149H19V38.787Z" fill="#33A9DC"/>
<path d="M19 16.7865H25.135L25.558 12.039H19V7.40253H30.625L30.514 8.64603L29.3755 21.423H19V16.7865V16.7865Z" fill="white"/>
<path d="M19.0285 28.827L19.0075 28.833L13.8445 27.438L13.5145 23.7405H8.85999L9.50949 31.02L19.006 33.657L19.0285 33.651V28.827V28.827Z" fill="#EBEBEB"/>
<path d="M24.7405 21.2265L24.1825 27.435L19.012 28.83V33.654L28.516 31.02L28.5865 30.237L29.392 21.2265H24.7405V21.2265Z" fill="white"/>
<path d="M19.0165 7.40253V12.039H7.81748L7.72448 10.9965L7.51298 8.64603L7.40198 7.40253H19.0165V7.40253ZM19 16.7865V21.423H13.9015L13.8085 20.3805L13.5985 18.03L13.4875 16.7865H19V16.7865Z" fill="#EBEBEB"/>
</svg>
