<svg width="38" height="42" viewBox="0 0 38 42" fill="none" xmlns="http://www.w3.org/2000/svg">
<path d="M3.85298 37.8015L0.482483 0H37.5175L34.1425 37.7955L18.9775 42L3.85298 37.8015Z" fill="#E44F26"/>
<path d="M19 38.787L31.255 35.3895L34.138 3.09149H19V38.787Z" fill="#F1662A"/>
<path d="M19 17.1105H12.865L12.442 12.363H19V7.7265H7.375L7.486 8.9715L8.6245 21.747H19V17.1105V17.1105ZM19 29.151L18.979 29.157L13.816 27.7635L13.486 24.066H8.8315L9.481 31.344L18.979 33.981L19 33.975V29.151Z" fill="#EBEBEB"/>
<path d="M18.9835 17.1105V21.747H24.6925L24.1555 27.7605L18.9835 29.1555V33.9795L28.489 31.344L28.558 30.561L29.647 18.3555L29.761 17.1105H18.9835V17.1105ZM18.9835 7.7265V12.363H30.1825L30.2755 11.322L30.487 8.9715L30.598 7.7265H18.9835V7.7265Z" fill="white"/>
</svg>
