<svg width="40" height="26" viewBox="0 0 40 26" fill="none" xmlns="http://www.w3.org/2000/svg">
<path d="M33 8.01998C31.5001 7.5034 30.1762 6.57456 29.18 5.33998C28.0821 3.96444 26.6841 2.85825 25.093 2.10603C23.5019 1.3538 21.7598 0.97547 20 0.999979C17.6327 0.83233 15.2892 1.56247 13.436 3.04499C11.5829 4.52752 10.3561 6.65365 10 8.99998C10.7013 7.82647 11.7569 6.90571 13.0148 6.37022C14.2727 5.83472 15.668 5.71209 17 6.01998C18.4974 6.5516 19.8192 7.48584 20.82 8.71998C21.9239 10.0845 23.3246 11.1793 24.9153 11.921C26.5061 12.6626 28.2451 13.0317 30 13C32.3673 13.1676 34.7108 12.4375 36.564 10.955C38.4171 9.47244 39.6439 7.34631 40 4.99998C39.3114 6.18752 38.2592 7.12219 36.9987 7.66598C35.7383 8.20978 34.3364 8.33388 33 8.01998ZM7 17.98C8.49989 18.4966 9.82383 19.4254 10.82 20.66C11.9179 22.0355 13.3159 23.1417 14.907 23.8939C16.4981 24.6462 18.2402 25.0245 20 25C22.3673 25.1676 24.7108 24.4375 26.564 22.955C28.4171 21.4724 29.6439 19.3463 30 17C29.2987 18.1735 28.2431 19.0942 26.9852 19.6297C25.7273 20.1652 24.332 20.2879 23 19.98C21.5026 19.4484 20.1808 18.5141 19.18 17.28C18.0731 15.9188 16.6719 14.8265 15.0818 14.0851C13.4917 13.3438 11.7542 12.9727 10 13C7.63273 12.8323 5.28917 13.5625 3.43601 15.045C1.58286 16.5275 0.356084 18.6537 0 21C0.688614 19.8124 1.74082 18.8778 3.00127 18.334C4.26172 17.7902 5.66362 17.6661 7 17.98Z" fill="#33A9DC"/>
</svg>
